<?xml version="1.0" encoding="UTF-8" standalone="no"?>
<svg
   xmlns:dc="http://purl.org/dc/elements/1.1/"
   xmlns:cc="http://creativecommons.org/ns#"
   xmlns:rdf="http://www.w3.org/1999/02/22-rdf-syntax-ns#"
   xmlns:svg="http://www.w3.org/2000/svg"
   xmlns="http://www.w3.org/2000/svg"
   viewBox="0 0 2666.6667 906.66669"
   height="906.66669"
   width="2666.6667"
   xml:space="preserve"
   id="svg2"
   version="1.1"><metadata
     id="metadata8"><rdf:RDF><cc:Work
         rdf:about=""><dc:format>image/svg+xml</dc:format><dc:type
           rdf:resource="http://purl.org/dc/dcmitype/StillImage" /><dc:title></dc:title></cc:Work></rdf:RDF></metadata><defs
     id="defs6"><clipPath
       id="clipPath20"
       clipPathUnits="userSpaceOnUse"><path
         id="path18"
         d="M 404.318,313.751 H 175.731 v 17.75 h 228.587 z" /></clipPath><clipPath
       id="clipPath28"
       clipPathUnits="userSpaceOnUse"><path
         id="path26"
         d="M -32768,32767 H 32767 V -32768 H -32768 Z" /></clipPath><linearGradient
       id="linearGradient36"
       spreadMethod="pad"
       gradientTransform="matrix(228.58708,0,0,-228.58708,175.73082,322.6257)"
       gradientUnits="userSpaceOnUse"
       y2="0"
       x2="1"
       y1="0"
       x1="0"><stop
         id="stop30"
         offset="0"
         style="stop-opacity:0;stop-color:#ffffff" /><stop
         id="stop32"
         offset="0.948649"
         style="stop-opacity:1;stop-color:#ffffff" /><stop
         id="stop34"
         offset="1"
         style="stop-opacity:1;stop-color:#ffffff" /></linearGradient><mask
       id="mask38"
       height="1"
       width="1"
       y="0"
       x="0"
       maskUnits="userSpaceOnUse"><g
         id="g48"><g
           id="g46"
           clip-path="url(#clipPath28)"><g
             id="g44"><g
               id="g42"><path
                 id="path40"
                 style="fill:url(#linearGradient36);stroke:none"
                 d="M -32768,32767 H 32767 V -32768 H -32768 Z" /></g></g></g></g></mask><linearGradient
       id="linearGradient60"
       spreadMethod="pad"
       gradientTransform="matrix(228.58708,0,0,-228.58708,175.73082,322.6257)"
       gradientUnits="userSpaceOnUse"
       y2="0"
       x2="1"
       y1="0"
       x1="0"><stop
         id="stop54"
         offset="0"
         style="stop-opacity:1;stop-color:#393739" /><stop
         id="stop56"
         offset="0.948649"
         style="stop-opacity:1;stop-color:#393739" /><stop
         id="stop58"
         offset="1"
         style="stop-opacity:1;stop-color:#393739" /></linearGradient><clipPath
       id="clipPath70"
       clipPathUnits="userSpaceOnUse"><path
         id="path68"
         d="M 404.318,279.148 H 214.694 v 25.511 h 189.624 z" /></clipPath><clipPath
       id="clipPath78"
       clipPathUnits="userSpaceOnUse"><path
         id="path76"
         d="M -32768,32767 H 32767 V -32768 H -32768 Z" /></clipPath><linearGradient
       id="linearGradient86"
       spreadMethod="pad"
       gradientTransform="matrix(189.62338,0,0,-189.62338,214.69452,291.90384)"
       gradientUnits="userSpaceOnUse"
       y2="0"
       x2="1"
       y1="0"
       x1="0"><stop
         id="stop80"
         offset="0"
         style="stop-opacity:0;stop-color:#ffffff" /><stop
         id="stop82"
         offset="0.948649"
         style="stop-opacity:1;stop-color:#ffffff" /><stop
         id="stop84"
         offset="1"
         style="stop-opacity:1;stop-color:#ffffff" /></linearGradient><mask
       id="mask88"
       height="1"
       width="1"
       y="0"
       x="0"
       maskUnits="userSpaceOnUse"><g
         id="g98"><g
           id="g96"
           clip-path="url(#clipPath78)"><g
             id="g94"><g
               id="g92"><path
                 id="path90"
                 style="fill:url(#linearGradient86);stroke:none"
                 d="M -32768,32767 H 32767 V -32768 H -32768 Z" /></g></g></g></g></mask><linearGradient
       id="linearGradient110"
       spreadMethod="pad"
       gradientTransform="matrix(189.62338,0,0,-189.62338,214.69452,291.90384)"
       gradientUnits="userSpaceOnUse"
       y2="0"
       x2="1"
       y1="0"
       x1="0"><stop
         id="stop104"
         offset="0"
         style="stop-opacity:1;stop-color:#393739" /><stop
         id="stop106"
         offset="0.948649"
         style="stop-opacity:1;stop-color:#393739" /><stop
         id="stop108"
         offset="1"
         style="stop-opacity:1;stop-color:#393739" /></linearGradient><clipPath
       id="clipPath120"
       clipPathUnits="userSpaceOnUse"><path
         id="path118"
         d="M 359.293,216.62 H 157.155 v 4.623 h 202.138 z" /></clipPath><clipPath
       id="clipPath128"
       clipPathUnits="userSpaceOnUse"><path
         id="path126"
         d="M -32768,32767 H 32767 V -32768 H -32768 Z" /></clipPath><linearGradient
       id="linearGradient136"
       spreadMethod="pad"
       gradientTransform="matrix(202.13779,0,0,-202.13779,157.15538,218.93143)"
       gradientUnits="userSpaceOnUse"
       y2="0"
       x2="1"
       y1="0"
       x1="0"><stop
         id="stop130"
         offset="0"
         style="stop-opacity:0;stop-color:#ffffff" /><stop
         id="stop132"
         offset="0.948649"
         style="stop-opacity:1;stop-color:#ffffff" /><stop
         id="stop134"
         offset="1"
         style="stop-opacity:1;stop-color:#ffffff" /></linearGradient><mask
       id="mask138"
       height="1"
       width="1"
       y="0"
       x="0"
       maskUnits="userSpaceOnUse"><g
         id="g148"><g
           id="g146"
           clip-path="url(#clipPath128)"><g
             id="g144"><g
               id="g142"><path
                 id="path140"
                 style="fill:url(#linearGradient136);stroke:none"
                 d="M -32768,32767 H 32767 V -32768 H -32768 Z" /></g></g></g></g></mask><linearGradient
       id="linearGradient160"
       spreadMethod="pad"
       gradientTransform="matrix(202.13779,0,0,-202.13779,157.15538,218.93143)"
       gradientUnits="userSpaceOnUse"
       y2="0"
       x2="1"
       y1="0"
       x1="0"><stop
         id="stop154"
         offset="0"
         style="stop-opacity:1;stop-color:#393739" /><stop
         id="stop156"
         offset="0.948649"
         style="stop-opacity:1;stop-color:#393739" /><stop
         id="stop158"
         offset="1"
         style="stop-opacity:1;stop-color:#393739" /></linearGradient><clipPath
       id="clipPath170"
       clipPathUnits="userSpaceOnUse"><path
         id="path168"
         d="m 342.842,183.704 h -176.91 v 25.51 h 176.91 z" /></clipPath><clipPath
       id="clipPath178"
       clipPathUnits="userSpaceOnUse"><path
         id="path176"
         d="M -32768,32767 H 32767 V -32768 H -32768 Z" /></clipPath><linearGradient
       id="linearGradient186"
       spreadMethod="pad"
       gradientTransform="matrix(176.9097,0,0,-176.9097,165.93213,196.45894)"
       gradientUnits="userSpaceOnUse"
       y2="0"
       x2="1"
       y1="0"
       x1="0"><stop
         id="stop180"
         offset="0"
         style="stop-opacity:0;stop-color:#ffffff" /><stop
         id="stop182"
         offset="0.948649"
         style="stop-opacity:1;stop-color:#ffffff" /><stop
         id="stop184"
         offset="1"
         style="stop-opacity:1;stop-color:#ffffff" /></linearGradient><mask
       id="mask188"
       height="1"
       width="1"
       y="0"
       x="0"
       maskUnits="userSpaceOnUse"><g
         id="g198"><g
           id="g196"
           clip-path="url(#clipPath178)"><g
             id="g194"><g
               id="g192"><path
                 id="path190"
                 style="fill:url(#linearGradient186);stroke:none"
                 d="M -32768,32767 H 32767 V -32768 H -32768 Z" /></g></g></g></g></mask><linearGradient
       id="linearGradient210"
       spreadMethod="pad"
       gradientTransform="matrix(176.9097,0,0,-176.9097,165.93213,196.45894)"
       gradientUnits="userSpaceOnUse"
       y2="0"
       x2="1"
       y1="0"
       x1="0"><stop
         id="stop204"
         offset="0"
         style="stop-opacity:1;stop-color:#393739" /><stop
         id="stop206"
         offset="0.948649"
         style="stop-opacity:1;stop-color:#393739" /><stop
         id="stop208"
         offset="1"
         style="stop-opacity:1;stop-color:#393739" /></linearGradient><clipPath
       id="clipPath220"
       clipPathUnits="userSpaceOnUse"><path
         id="path218"
         d="M 374.013,235.307 H 184.39 v 17.75 h 189.623 z" /></clipPath><clipPath
       id="clipPath228"
       clipPathUnits="userSpaceOnUse"><path
         id="path226"
         d="M -32768,32767 H 32767 V -32768 H -32768 Z" /></clipPath><linearGradient
       id="linearGradient236"
       spreadMethod="pad"
       gradientTransform="matrix(189.62338,0,0,-189.62338,184.38942,244.1814)"
       gradientUnits="userSpaceOnUse"
       y2="0"
       x2="1"
       y1="0"
       x1="0"><stop
         id="stop230"
         offset="0"
         style="stop-opacity:0;stop-color:#ffffff" /><stop
         id="stop232"
         offset="0.948649"
         style="stop-opacity:1;stop-color:#ffffff" /><stop
         id="stop234"
         offset="1"
         style="stop-opacity:1;stop-color:#ffffff" /></linearGradient><mask
       id="mask238"
       height="1"
       width="1"
       y="0"
       x="0"
       maskUnits="userSpaceOnUse"><g
         id="g248"><g
           id="g246"
           clip-path="url(#clipPath228)"><g
             id="g244"><g
               id="g242"><path
                 id="path240"
                 style="fill:url(#linearGradient236);stroke:none"
                 d="M -32768,32767 H 32767 V -32768 H -32768 Z" /></g></g></g></g></mask><linearGradient
       id="linearGradient260"
       spreadMethod="pad"
       gradientTransform="matrix(189.62338,0,0,-189.62338,184.38942,244.1814)"
       gradientUnits="userSpaceOnUse"
       y2="0"
       x2="1"
       y1="0"
       x1="0"><stop
         id="stop254"
         offset="0"
         style="stop-opacity:1;stop-color:#393739" /><stop
         id="stop256"
         offset="0.948649"
         style="stop-opacity:1;stop-color:#393739" /><stop
         id="stop258"
         offset="1"
         style="stop-opacity:1;stop-color:#393739" /></linearGradient><clipPath
       id="clipPath270"
       clipPathUnits="userSpaceOnUse"><path
         id="path268"
         d="m 379.991,473.049 28.098,-35.987 66.142,24.649 -147.236,-223.662 1.288,-90.686 c 0.987,3.776 266.801,409.387 266.801,409.387 v 0 z" /></clipPath><linearGradient
       id="linearGradient280"
       spreadMethod="pad"
       gradientTransform="matrix(285.37927,190.09938,190.09938,-285.37927,260.13739,247.59061)"
       gradientUnits="userSpaceOnUse"
       y2="0"
       x2="1"
       y1="0"
       x1="0"><stop
         id="stop276"
         offset="0"
         style="stop-opacity:1;stop-color:#ee342d" /><stop
         id="stop278"
         offset="1"
         style="stop-opacity:1;stop-color:#9b090d" /></linearGradient><clipPath
       id="clipPath290"
       clipPathUnits="userSpaceOnUse"><path
         id="path288"
         d="m 312.672,449.169 -178.464,-70.751 181.881,-46.361 7.729,-68.371 c 3.212,3.798 35.035,53.757 35.035,53.757 v 0 c 0,0 -8.172,45.093 -4.083,46.847 v 0 c 4.09,1.753 -85.794,22.037 -85.794,22.037 v 0 l 87.162,30.096 -10.143,101.139 21.903,-33.687 40.792,13.184 -106.721,138.777 z" /></clipPath><linearGradient
       id="linearGradient300"
       spreadMethod="pad"
       gradientTransform="matrix(285.37927,190.09938,190.09938,-285.37927,183.07182,363.28226)"
       gradientUnits="userSpaceOnUse"
       y2="0"
       x2="1"
       y1="0"
       x1="0"><stop
         id="stop296"
         offset="0"
         style="stop-opacity:1;stop-color:#9b090d" /><stop
         id="stop298"
         offset="1"
         style="stop-opacity:1;stop-color:#ed1b2c" /></linearGradient><clipPath
       id="clipPath310"
       clipPathUnits="userSpaceOnUse"><path
         id="path308"
         d="m 388.913,470.596 21.039,-26.946 78.179,29.134 -155.59,-236.354 0.998,-70.32 c 13.995,21.878 46.759,72.355 123.891,190.384 v 0 c 51.207,78.355 102.86,157.223 123.581,188.854 v 0 z" /></clipPath><linearGradient
       id="linearGradient320"
       spreadMethod="pad"
       gradientTransform="matrix(-51.40604,-274.53668,-274.53668,51.40604,485.02167,541.73627)"
       gradientUnits="userSpaceOnUse"
       y2="0"
       x2="1"
       y1="0"
       x1="0"><stop
         id="stop316"
         offset="0"
         style="stop-opacity:1;stop-color:#ed1b2c" /><stop
         id="stop318"
         offset="1"
         style="stop-opacity:1;stop-color:#9b090d" /></linearGradient><clipPath
       id="clipPath330"
       clipPathUnits="userSpaceOnUse"><path
         id="path328"
         d="m 318.414,445.504 -166.336,-65.942 169.071,-43.096 6.479,-57.318 c 7.188,10.983 17.651,27.275 25.408,39.443 v 0 c -4.254,23.838 -5.287,36.137 -4.786,42.676 v 0 c -11.799,3.647 -47.959,12.332 -80.49,19.672 v 0 l -18.933,4.273 101.38,35.005 -9.706,96.794 10.125,3.562 19.597,-30.143 29.313,9.474 -91.029,118.371 z" /></clipPath><linearGradient
       id="linearGradient340"
       spreadMethod="pad"
       gradientTransform="matrix(-51.40604,-274.53668,-274.53668,51.40604,301.34671,576.12878)"
       gradientUnits="userSpaceOnUse"
       y2="0"
       x2="1"
       y1="0"
       x1="0"><stop
         id="stop336"
         offset="0"
         style="stop-opacity:1;stop-color:#ed1b2c" /><stop
         id="stop338"
         offset="1"
         style="stop-opacity:1;stop-color:#9b090d" /></linearGradient><clipPath
       id="clipPath350"
       clipPathUnits="userSpaceOnUse"><path
         id="path348"
         d="m 388.913,470.596 21.039,-26.946 78.179,29.134 -2.936,-4.46 95.467,76.888 z" /></clipPath><linearGradient
       id="linearGradient360"
       spreadMethod="pad"
       gradientTransform="matrix(106.79212,-25.171381,-25.171381,-106.79212,434.39777,518.3501)"
       gradientUnits="userSpaceOnUse"
       y2="0"
       x2="1"
       y1="0"
       x1="0"><stop
         id="stop356"
         offset="0"
         style="stop-opacity:1;stop-color:#ed1b2c" /><stop
         id="stop358"
         offset="1"
         style="stop-opacity:1;stop-color:#9b090d" /></linearGradient><clipPath
       id="clipPath370"
       clipPathUnits="userSpaceOnUse"><path
         id="path368"
         d="m 320.439,336.647 0.71,-0.181 6.479,-57.318 c 7.188,10.983 17.651,27.275 25.408,39.443 v 0 c -4.115,23.06 -5.216,35.322 -4.83,42.017 v 0 c -9.393,-8.093 -19.433,-16.752 -27.767,-23.961" /></clipPath><linearGradient
       id="linearGradient380"
       spreadMethod="pad"
       gradientTransform="matrix(29.396397,-6.9288621,-6.9288621,-29.396397,319.36066,324.97208)"
       gradientUnits="userSpaceOnUse"
       y2="0"
       x2="1"
       y1="0"
       x1="0"><stop
         id="stop376"
         offset="0"
         style="stop-opacity:1;stop-color:#ed1b2c" /><stop
         id="stop378"
         offset="1"
         style="stop-opacity:1;stop-color:#9b090d" /></linearGradient><clipPath
       id="clipPath390"
       clipPathUnits="userSpaceOnUse"><path
         id="path388"
         d="m 308.657,615.665 38.577,-96.285 3.392,1.193 19.597,-30.143 29.313,9.474 -91.029,118.371 z m -156.579,-236.103 2.342,-0.597 96.913,7.112 98.874,34.14 -0.228,2.276 -31.925,22.869 z" /></clipPath><linearGradient
       id="linearGradient400"
       spreadMethod="pad"
       gradientTransform="matrix(158.15752,-37.278439,-37.278439,-158.15752,166.74693,488.78903)"
       gradientUnits="userSpaceOnUse"
       y2="0"
       x2="1"
       y1="0"
       x1="0"><stop
         id="stop396"
         offset="0"
         style="stop-opacity:1;stop-color:#ed1b2c" /><stop
         id="stop398"
         offset="1"
         style="stop-opacity:1;stop-color:#9b090d" /></linearGradient><clipPath
       id="clipPath410"
       clipPathUnits="userSpaceOnUse"><path
         id="path408"
         d="M 0,680 H 2000 V 0 H 0 Z" /></clipPath><clipPath
       id="clipPath470"
       clipPathUnits="userSpaceOnUse"><path
         id="path468"
         d="M 603.051,545.348 340.509,147.363 416.658,75.32 1855.08,127.959 1824.84,545.348 Z" /></clipPath></defs><g
     transform="matrix(1.3333333,0,0,-1.3333333,0,906.66667)"
     id="g10"><g
       id="g14"><g
         clip-path="url(#clipPath20)"
         id="g16"><g
           id="g22"><g
             id="g24" /><g
             mask="url(#mask38)"
             id="g50"><g
               id="g52"><path
                 id="path62"
                 style="fill:url(#linearGradient60);stroke:none"
                 d="M 404.318,313.751 H 175.731 v 17.75 h 228.587 z" /></g></g></g></g></g><g
       id="g64"><g
         clip-path="url(#clipPath70)"
         id="g66"><g
           id="g72"><g
             id="g74" /><g
             mask="url(#mask88)"
             id="g100"><g
               id="g102"><path
                 id="path112"
                 style="fill:url(#linearGradient110);stroke:none"
                 d="M 404.318,279.148 H 214.694 v 25.511 h 189.624 z" /></g></g></g></g></g><g
       id="g114"><g
         clip-path="url(#clipPath120)"
         id="g116"><g
           id="g122"><g
             id="g124" /><g
             mask="url(#mask138)"
             id="g150"><g
               id="g152"><path
                 id="path162"
                 style="fill:url(#linearGradient160);stroke:none"
                 d="M 359.293,216.62 H 157.155 v 4.623 h 202.138 z" /></g></g></g></g></g><g
       id="g164"><g
         clip-path="url(#clipPath170)"
         id="g166"><g
           id="g172"><g
             id="g174" /><g
             mask="url(#mask188)"
             id="g200"><g
               id="g202"><path
                 id="path212"
                 style="fill:url(#linearGradient210);stroke:none"
                 d="m 342.842,183.704 h -176.91 v 25.51 h 176.91 z" /></g></g></g></g></g><g
       id="g214"><g
         clip-path="url(#clipPath220)"
         id="g216"><g
           id="g222"><g
             id="g224" /><g
             mask="url(#mask238)"
             id="g250"><g
               id="g252"><path
                 id="path262"
                 style="fill:url(#linearGradient260);stroke:none"
                 d="M 374.013,235.307 H 184.39 v 17.75 h 189.623 z" /></g></g></g></g></g><g
       id="g264"><g
         clip-path="url(#clipPath270)"
         id="g266"><g
           id="g272"><g
             id="g274"><path
               id="path282"
               style="fill:url(#linearGradient280);stroke:none"
               d="m 379.991,473.049 28.098,-35.987 66.142,24.649 -147.236,-223.662 1.288,-90.686 c 0.987,3.776 266.801,409.387 266.801,409.387 v 0 z" /></g></g></g></g><g
       id="g284"><g
         clip-path="url(#clipPath290)"
         id="g286"><g
           id="g292"><g
             id="g294"><path
               id="path302"
               style="fill:url(#linearGradient300);stroke:none"
               d="m 312.672,449.169 -178.464,-70.751 181.881,-46.361 7.729,-68.371 c 3.212,3.798 35.035,53.757 35.035,53.757 v 0 c 0,0 -8.172,45.093 -4.083,46.847 v 0 c 4.09,1.753 -85.794,22.037 -85.794,22.037 v 0 l 87.162,30.096 -10.143,101.139 21.903,-33.687 40.792,13.184 -106.721,138.777 z" /></g></g></g></g><g
       id="g304"><g
         clip-path="url(#clipPath310)"
         id="g306"><g
           id="g312"><g
             id="g314"><path
               id="path322"
               style="fill:url(#linearGradient320);stroke:none"
               d="m 388.913,470.596 21.039,-26.946 78.179,29.134 -155.59,-236.354 0.998,-70.32 c 13.995,21.878 46.759,72.355 123.891,190.384 v 0 c 51.207,78.355 102.86,157.223 123.581,188.854 v 0 z" /></g></g></g></g><g
       id="g324"><g
         clip-path="url(#clipPath330)"
         id="g326"><g
           id="g332"><g
             id="g334"><path
               id="path342"
               style="fill:url(#linearGradient340);stroke:none"
               d="m 318.414,445.504 -166.336,-65.942 169.071,-43.096 6.479,-57.318 c 7.188,10.983 17.651,27.275 25.408,39.443 v 0 c -4.254,23.838 -5.287,36.137 -4.786,42.676 v 0 c -11.799,3.647 -47.959,12.332 -80.49,19.672 v 0 l -18.933,4.273 101.38,35.005 -9.706,96.794 10.125,3.562 19.597,-30.143 29.313,9.474 -91.029,118.371 z" /></g></g></g></g><g
       id="g344"><g
         clip-path="url(#clipPath350)"
         id="g346"><g
           id="g352"><g
             id="g354"><path
               id="path362"
               style="fill:url(#linearGradient360);stroke:none"
               d="m 388.913,470.596 21.039,-26.946 78.179,29.134 -2.936,-4.46 95.467,76.888 z" /></g></g></g></g><g
       id="g364"><g
         clip-path="url(#clipPath370)"
         id="g366"><g
           id="g372"><g
             id="g374"><path
               id="path382"
               style="fill:url(#linearGradient380);stroke:none"
               d="m 320.439,336.647 0.71,-0.181 6.479,-57.318 c 7.188,10.983 17.651,27.275 25.408,39.443 v 0 c -4.115,23.06 -5.216,35.322 -4.83,42.017 v 0 c -9.393,-8.093 -19.433,-16.752 -27.767,-23.961" /></g></g></g></g><g
       id="g384"><g
         clip-path="url(#clipPath390)"
         id="g386"><g
           id="g392"><g
             id="g394"><path
               id="path402"
               style="fill:url(#linearGradient400);stroke:none"
               d="m 308.657,615.665 38.577,-96.285 3.392,1.193 19.597,-30.143 29.313,9.474 -91.029,118.371 z m -156.579,-236.103 2.342,-0.597 96.913,7.112 98.874,34.14 -0.228,2.276 -31.925,22.869 z" /></g></g></g></g><g
       id="g404"><g
         clip-path="url(#clipPath410)"
         id="g406"><g
           transform="translate(761.4785,195)"
           id="g412"><path
             id="path414"
             style="fill:#c42026;fill-opacity:1;fill-rule:nonzero;stroke:none"
             d="m 0,0 -6.361,-4.346 c -3.51,4.069 -7.724,7.154 -12.641,9.253 -4.918,2.1 -10.32,3.15 -16.206,3.15 -6.434,0 -12.393,-1.376 -17.877,-4.126 -5.484,-2.751 -9.734,-6.446 -12.75,-11.084 -3.017,-4.639 -4.525,-9.856 -4.525,-15.65 0,-8.757 3.373,-16.064 10.118,-21.924 6.745,-5.859 15.255,-8.789 25.528,-8.789 11.297,0 20.747,3.939 28.353,11.817 L 0,-45.996 c -4.022,-4.558 -9.04,-8.081 -15.054,-10.571 -6.014,-2.491 -12.733,-3.736 -20.154,-3.736 -14.112,0 -25.245,4.183 -33.397,12.549 -6.837,7.064 -10.255,15.592 -10.255,25.586 0,10.514 4.14,19.36 12.421,26.538 8.281,7.178 18.655,10.767 31.122,10.767 7.53,0 14.331,-1.327 20.4,-3.98 C -8.848,8.504 -3.876,4.785 0,0" /></g><g
           transform="translate(777.5464,208.3301)"
           id="g416"><path
             id="path418"
             style="fill:#c42026;fill-opacity:1;fill-rule:nonzero;stroke:none"
             d="M 0,0 H 8.062 V -30.127 H 49.137 V 0 h 8.061 v -71.826 h -8.061 v 34.668 H 8.062 V -71.826 H 0 Z" /></g><g
           transform="translate(886.3184,193.0693)"
           id="g420"><path
             id="path422"
             style="fill:#c42026;fill-opacity:1;fill-rule:nonzero;stroke:none"
             d="m 0,0 -13.823,-25.999 h 27.579 z m 1.018,15.261 37.62,-71.826 h -8.707 l -12.688,23.632 h -34.752 l -12.567,-23.632 h -8.994 l 38.113,71.826 z" /></g><g
           transform="translate(937.46,208.3301)"
           id="g424"><path
             id="path426"
             style="fill:#c42026;fill-opacity:1;fill-rule:nonzero;stroke:none"
             d="m 0,0 h 8.062 v -64.893 h 31.039 v -6.933 H 0 Z" /></g><g
           transform="translate(989.3389,208.3301)"
           id="g428"><path
             id="path430"
             style="fill:#c42026;fill-opacity:1;fill-rule:nonzero;stroke:none"
             d="m 0,0 h 8.062 v -64.893 h 31.039 v -6.933 H 0 Z" /></g><g
           transform="translate(1041.2725,208.3301)"
           id="g432"><path
             id="path434"
             style="fill:#c42026;fill-opacity:1;fill-rule:nonzero;stroke:none"
             d="M 0,0 H 46.229 V -7.031 H 8.062 v -22.51 H 45.9 v -7.031 H 8.062 V -64.795 H 45.9 v -7.031 H 0 Z" /></g><g
           transform="translate(1101.4863,136.5039)"
           id="g436"><path
             id="path438"
             style="fill:#c42026;fill-opacity:1;fill-rule:nonzero;stroke:none"
             d="M 0,0 V 71.826 H 1.755 L 55.443,16.768 v 55.058 h 7.953 V 0 h -1.81 L 8.336,54.389 V 0 Z" /></g><g
           transform="translate(1262.332,196.2695)"
           id="g440"><path
             id="path442"
             style="fill:#c42026;fill-opacity:1;fill-rule:nonzero;stroke:none"
             d="m 0,0 -6.252,-5.273 c -4.496,3.938 -9.423,6.924 -14.779,8.96 -5.357,2.034 -10.575,3.051 -15.657,3.051 -6.325,0 -12.348,-1.384 -18.07,-4.15 -5.721,-2.768 -10.155,-6.519 -13.299,-11.255 -3.144,-4.736 -4.715,-9.741 -4.715,-15.015 0,-5.404 1.626,-10.539 4.88,-15.405 3.253,-4.867 7.75,-8.691 13.491,-11.475 5.74,-2.783 12.028,-4.174 18.865,-4.174 8.299,0 15.318,2.083 21.058,6.25 5.74,4.166 9.14,9.57 10.201,16.211 h -25.72 v 6.933 H 4.771 c -0.073,-11.1 -3.775,-19.914 -11.105,-26.44 -7.331,-6.528 -17.138,-9.79 -29.422,-9.79 -14.916,0 -26.725,4.524 -35.426,13.574 -6.691,6.966 -10.036,15.022 -10.036,24.17 0,6.803 1.919,13.135 5.758,18.994 3.839,5.859 9.104,10.44 15.794,13.745 6.69,3.304 14.259,4.956 22.704,4.956 6.836,0 13.272,-1.098 19.304,-3.296 C -11.626,8.374 -5.74,4.85 0,0" /></g><g
           transform="translate(1282.5137,208.3301)"
           id="g444"><path
             id="path446"
             style="fill:#c42026;fill-opacity:1;fill-rule:nonzero;stroke:none"
             d="M 0,0 H 46.229 V -7.031 H 8.062 v -22.51 H 45.9 v -7.031 H 8.062 V -64.795 H 45.9 v -7.031 H 0 Z" /></g><g
           transform="translate(1334.3369,149.8828)"
           id="g448"><path
             id="path450"
             style="fill:#c42026;fill-opacity:1;fill-rule:nonzero;stroke:none"
             d="m 0,0 6.855,3.662 c 4.827,-7.91 10.401,-11.865 16.726,-11.865 2.705,0 5.246,0.561 7.623,1.684 2.376,1.123 4.186,2.628 5.43,4.517 1.242,1.888 1.864,3.89 1.864,6.006 0,2.408 -0.915,4.768 -2.742,7.08 -2.523,3.189 -7.129,7.031 -13.819,11.523 -6.728,4.525 -10.914,7.796 -12.559,9.815 -2.852,3.385 -4.277,7.047 -4.277,10.986 0,3.125 0.839,5.973 2.522,8.545 1.682,2.571 4.048,4.598 7.102,6.079 3.052,1.481 6.37,2.222 9.954,2.222 3.8,0 7.357,-0.839 10.666,-2.515 3.307,-1.676 6.808,-4.76 10.502,-9.253 l -6.581,-4.443 c -3.036,3.58 -5.621,5.94 -7.76,7.08 -2.139,1.139 -4.47,1.709 -6.992,1.709 -3.254,0 -5.914,-0.879 -7.98,-2.637 -2.066,-1.757 -3.097,-3.923 -3.097,-6.494 0,-1.562 0.365,-3.076 1.096,-4.541 0.731,-1.465 2.066,-3.06 4.003,-4.785 1.06,-0.912 4.533,-3.305 10.42,-7.178 6.982,-4.59 11.772,-8.676 14.368,-12.256 2.595,-3.581 3.894,-7.177 3.894,-10.791 0,-5.209 -2.222,-9.733 -6.663,-13.574 -4.443,-3.842 -9.844,-5.762 -16.205,-5.762 -4.9,0 -9.342,1.165 -13.327,3.492 C 7.037,-9.367 3.363,-5.469 0,0" /></g><g
           transform="translate(1423.3428,208.3301)"
           id="g452"><path
             id="path454"
             style="fill:#c42026;fill-opacity:1;fill-rule:nonzero;stroke:none"
             d="M 0,0 H 9.275 L 29.917,-29.623 50.233,0 h 9.323 L 34.001,-37.5 V -71.826 H 26.049 V -37.5 Z" /></g><g
           transform="translate(1534.9424,203.1543)"
           id="g456"><path
             id="path458"
             style="fill:#c42026;fill-opacity:1;fill-rule:nonzero;stroke:none"
             d="m 0,0 c -5.969,0 -11.628,-1.385 -16.974,-4.154 -5.346,-2.77 -9.521,-6.499 -12.524,-11.19 -3.002,-4.691 -4.503,-9.92 -4.503,-15.686 0,-8.536 3.323,-15.744 9.969,-21.624 6.645,-5.881 14.656,-8.821 24.032,-8.821 6.262,0 12.056,1.352 17.384,4.056 5.328,2.704 9.484,6.401 12.469,11.093 2.984,4.691 4.476,9.903 4.476,15.638 0,5.7 -1.492,10.856 -4.476,15.465 -2.985,4.611 -7.187,8.299 -12.606,11.069 C 11.827,-1.385 6.078,0 0,0 m -0.356,6.982 c 12.217,0 22.443,-3.629 30.673,-10.888 8.232,-7.26 12.348,-16.196 12.348,-26.807 0,-10.515 -4.107,-19.433 -12.32,-26.758 -8.213,-7.324 -18.228,-10.986 -30.044,-10.986 -11.962,0 -22.06,3.645 -30.291,10.937 -8.232,7.291 -12.347,16.114 -12.347,26.465 0,6.901 1.874,13.297 5.624,19.19 3.75,5.891 8.862,10.506 15.338,13.843 6.476,3.335 13.48,5.004 21.019,5.004" /></g><g
           transform="translate(1594.0596,208.3301)"
           id="g460"><path
             id="path462"
             style="fill:#c42026;fill-opacity:1;fill-rule:nonzero;stroke:none"
             d="m 0,0 h 8.062 v -43.359 c 0,-5.144 0.109,-8.35 0.329,-9.62 0.401,-2.832 1.334,-5.2 2.797,-7.104 1.461,-1.904 3.709,-3.5 6.745,-4.785 3.034,-1.286 6.087,-1.929 9.158,-1.929 2.669,0 5.227,0.504 7.678,1.514 2.449,1.009 4.497,2.408 6.141,4.199 1.646,1.79 2.853,3.955 3.62,6.494 0.548,1.822 0.823,5.567 0.823,11.231 V 0 h 8.061 v -43.359 c 0,-6.413 -0.704,-11.597 -2.111,-15.552 -1.408,-3.955 -4.223,-7.398 -8.446,-10.327 -4.222,-2.93 -9.333,-4.395 -15.328,-4.395 -6.508,0 -12.083,1.384 -16.725,4.151 -4.645,2.766 -7.751,6.428 -9.324,10.986 C 0.493,-55.697 0,-50.651 0,-43.359 Z" /></g></g></g><g
       id="g464"><g
         clip-path="url(#clipPath470)"
         id="g466"><g
           transform="translate(668.9897,338.5117)"
           id="g472"><path
             id="path474"
             style="fill:#2b2a29;fill-opacity:1;fill-rule:nonzero;stroke:none"
             d="m 0,0 c -0.596,-3.327 -1.005,-6.044 -1.227,-8.15 -0.223,-2.107 -0.446,-4.954 -0.669,-8.538 -0.223,-3.587 -0.333,-6.452 -0.333,-8.595 0,-6.063 0.942,-11.144 2.827,-15.247 1.885,-4.103 4.512,-7.283 7.877,-9.536 3.363,-2.256 6.967,-3.382 10.812,-3.382 4.067,0 7.8,1.164 11.203,3.492 3.402,2.329 6.101,5.822 8.097,10.479 1.996,4.658 2.996,9.906 2.996,15.747 0,7.909 -2.09,14.266 -6.266,19.073 C 31.14,0.147 25.061,2.55 17.076,2.55 12.048,2.55 6.357,1.7 0,0 m -51.12,-133.954 c 1.402,15.155 2.583,30.272 3.543,45.353 1.699,25.799 2.861,47.442 3.488,64.926 0.628,17.483 0.943,34.8 0.943,51.952 15.008,2.29 26.762,3.826 35.264,4.601 8.503,0.777 17.005,1.165 25.507,1.165 10.646,0 20.442,-1.109 29.388,-3.327 8.945,-2.217 16.136,-6.137 21.57,-11.754 5.433,-5.619 9.519,-12.309 12.255,-20.071 2.734,-7.762 4.102,-15.895 4.102,-24.396 0,-7.762 -1.108,-15.285 -3.324,-22.565 -2.217,-7.283 -5.614,-13.844 -10.194,-19.684 -4.579,-5.84 -9.841,-10.165 -15.787,-12.974 -5.947,-2.808 -12.576,-4.213 -19.888,-4.213 -3.619,0 -7.367,0.351 -11.245,1.053 -3.877,0.703 -7.552,1.719 -11.024,3.05 -3.472,1.33 -6.371,2.678 -8.697,4.047 -2.327,1.367 -5.226,3.344 -8.697,5.933 l -1.231,-30.939 c -0.524,-14.193 -0.786,-24.911 -0.786,-32.157 -8.587,0.148 -15.95,0.222 -22.094,0.222 -5.33,0 -13.026,-0.074 -23.093,-0.222" /></g><g
           transform="translate(835.5449,339.9531)"
           id="g476"><path
             id="path478"
             style="fill:#2b2a29;fill-opacity:1;fill-rule:nonzero;stroke:none"
             d="m 0,0 c -4.732,0 -8.946,-1.22 -12.642,-3.659 -3.697,-2.44 -6.486,-6.007 -8.372,-10.701 -1.885,-4.696 -2.827,-9.814 -2.827,-15.358 0,-8.134 2.032,-14.36 6.099,-18.685 4.064,-4.325 9.165,-6.487 15.303,-6.487 4.657,0 8.833,1.237 12.53,3.714 3.696,2.477 6.487,6.136 8.372,10.979 1.885,4.841 2.828,10.035 2.828,15.58 0,4.583 -0.74,8.721 -2.218,12.42 -1.48,3.695 -3.9,6.653 -7.263,8.871 C 8.445,-1.108 4.508,0 0,0 m 0.776,32.602 c 9.166,0 17.982,-1.406 26.447,-4.214 8.464,-2.81 15.617,-6.858 21.457,-12.142 5.84,-5.287 10.147,-11.46 12.919,-18.519 2.772,-7.061 4.158,-14.657 4.158,-22.788 0,-7.911 -1.238,-15.432 -3.715,-22.566 C 59.565,-54.762 55.37,-61.451 49.457,-67.698 43.542,-73.945 36.02,-78.62 26.891,-81.726 17.76,-84.83 8.095,-86.383 -2.107,-86.383 c -9.389,0 -18.408,1.369 -27.057,4.104 -8.649,2.733 -15.876,6.725 -21.679,11.975 -5.804,5.248 -10.165,11.533 -13.085,18.852 -2.921,7.318 -4.38,15.006 -4.38,23.064 0,8.057 1.423,15.746 4.269,23.066 2.845,7.318 7.355,13.897 13.529,19.738 6.172,5.839 13.805,10.33 22.899,13.473 9.092,3.141 18.554,4.713 28.387,4.713" /></g><g
           transform="translate(917.603,256.4531)"
           id="g480"><path
             id="path482"
             style="fill:#2b2a29;fill-opacity:1;fill-rule:nonzero;stroke:none"
             d="M 0,0 3.432,49.235 4.54,77.512 c 0.072,5.101 0.11,10.313 0.11,15.635 0,5.396 -0.074,12.087 -0.221,20.071 8.945,-0.149 16.044,-0.221 21.294,-0.221 6.137,0 13.197,0.072 21.183,0.221 l -0.463,-12.53 c 2.884,3.252 5.25,5.673 7.101,7.263 1.849,1.589 3.957,3.03 6.324,4.325 2.367,1.292 4.844,2.254 7.433,2.883 2.589,0.627 5.288,0.943 8.098,0.943 2.664,0 5.623,-0.371 8.877,-1.109 0.072,-8.059 0.258,-14.712 0.555,-19.96 l 0.776,-17.077 c -4.064,1.182 -7.867,1.773 -11.412,1.773 -4.432,0 -8.256,-0.647 -11.468,-1.94 C 59.515,76.495 56.669,74.535 54.195,71.912 51.721,69.287 49.744,66.016 48.268,62.099 46.79,58.18 45.756,51.97 45.165,43.469 44.574,34.967 44.279,25.245 44.279,14.305 44.279,10.46 44.427,5.692 44.723,0 37.546,0.147 30.332,0.223 23.082,0.223 15.906,0.223 8.213,0.147 0,0" /></g><g
           transform="translate(1097.7979,289.0547)"
           id="g484"><path
             id="path486"
             style="fill:#2b2a29;fill-opacity:1;fill-rule:nonzero;stroke:none"
             d="m 0,0 c -1.33,-6.209 -2.478,-12.272 -3.438,-18.186 l -2.439,-13.528 c -7.318,-1.625 -13.029,-2.661 -17.132,-3.105 -4.103,-0.444 -8.078,-0.665 -11.921,-0.665 -6.284,0 -11.865,0.537 -16.744,1.608 -4.88,1.072 -8.946,3.03 -12.198,5.877 -3.254,2.845 -5.472,6.116 -6.653,9.813 -1.184,3.696 -1.775,7.614 -1.775,11.754 0,0.739 0.037,2.052 0.11,3.937 0.073,1.886 0.331,6.08 0.772,12.586 l 2.425,38.368 h -17.278 c 0.367,5.101 0.7,11.827 0.996,20.182 l 0.333,10.313 h 18.374 c 0.44,3.399 0.991,10.829 1.653,22.288 l 18.983,3.882 c 3.477,0.665 10.877,2.364 22.202,5.1 -0.52,-9.685 -0.89,-20.109 -1.113,-31.27 H 0.444 C -0.148,63.576 -0.443,53.411 -0.443,48.459 h -25.513 l -1.336,-27.723 c -0.149,-4.14 -0.222,-6.801 -0.222,-7.983 0,-3.549 0.388,-6.507 1.164,-8.871 0.777,-2.367 2.145,-4.067 4.105,-5.102 1.96,-1.036 4.124,-1.551 6.49,-1.551 1.775,0 3.625,0.127 5.548,0.387 C -8.283,-2.126 -4.882,-1.33 0,0" /></g><g
           transform="translate(1111.1045,258.5605)"
           id="g488"><path
             id="path490"
             style="fill:#2b2a29;fill-opacity:1;fill-rule:nonzero;stroke:none"
             d="m 0,0 c -0.296,3.252 -0.592,6.671 -0.887,10.257 -0.296,3.585 -0.776,8.519 -1.441,14.804 l -0.888,7.984 c 7.154,-2.811 13.313,-4.899 18.476,-6.266 5.163,-1.368 9.92,-2.05 14.271,-2.05 3.615,0 6.546,0.332 8.795,0.998 2.249,0.665 3.892,1.625 4.925,2.882 1.032,1.256 1.549,2.551 1.549,3.881 0,1.182 -0.389,2.347 -1.161,3.493 -0.775,1.146 -2.527,2.717 -5.253,4.713 C 32.34,45.132 27.014,49.16 22.407,52.783 17.798,56.404 14.333,59.62 12.011,62.431 9.689,65.239 7.92,68.27 6.704,71.523 5.487,74.775 4.88,78.139 4.88,81.614 c 0,6.136 1.755,11.865 5.266,17.188 3.511,5.323 8.687,9.185 15.525,11.588 6.838,2.402 15.173,3.604 25.006,3.604 10.274,0 23.397,-1.33 39.366,-3.992 l 1.773,-31.049 c -8.945,3.548 -17.558,5.323 -25.837,5.323 -5.84,0 -10.073,-0.601 -12.696,-1.802 -2.625,-1.203 -3.937,-3.041 -3.937,-5.517 0,-0.814 0.147,-1.591 0.444,-2.328 0.294,-0.74 0.831,-1.517 1.607,-2.329 0.777,-0.815 1.737,-1.647 2.883,-2.495 1.146,-0.851 3.938,-2.827 8.373,-5.933 4.436,-3.104 7.91,-5.655 10.423,-7.651 4.14,-3.254 7.3,-6.265 9.482,-9.037 2.179,-2.773 3.842,-5.731 4.99,-8.871 1.144,-3.144 1.719,-6.452 1.719,-9.925 0,-5.25 -1.276,-10.074 -3.827,-14.471 C 82.891,9.518 79.046,5.839 73.908,2.883 68.77,-0.074 63.207,-2.124 57.22,-3.271 51.231,-4.417 45.058,-4.99 38.701,-4.99 c -4.289,0 -9.667,0.371 -16.135,1.109 C 16.097,-3.142 8.575,-1.849 0,0" /></g><g
           transform="translate(1289.5781,326.2031)"
           id="g492"><path
             id="path494"
             style="fill:#c42026;fill-opacity:1;fill-rule:nonzero;stroke:none"
             d="M 0,0 2.386,50.049 C -2.508,42.429 -6.512,36.361 -9.625,31.849 -12.738,27.336 -15,24.118 -16.408,22.195 L -32.532,0 Z m -9.256,-69.75 c 0.676,6.579 1.278,13.565 1.806,20.959 0.526,7.391 0.904,13.269 1.129,17.631 l -12.097,-0.111 h -9.101 l -41.728,-0.666 0.332,3.438 c 0.073,0.812 0.185,3.216 0.333,7.208 l 0.888,21.069 c 0.072,1.921 0.11,3.954 0.11,6.099 7.533,9.093 16.23,20.421 26.092,33.988 9.86,13.565 19.261,27.481 28.197,41.749 11.394,-0.149 21.641,-0.221 30.742,-0.221 8.582,0 17.386,0.072 26.413,0.221 -1.244,-15.673 -2.214,-30.993 -2.909,-45.963 -0.695,-14.97 -1.078,-26.3 -1.15,-33.988 3.541,-0.148 7.71,-0.222 12.508,-0.222 3.762,0 5.939,0.018 6.53,0.056 0.589,0.036 2.028,0.128 4.315,0.277 -0.296,-8.871 -0.443,-18.224 -0.443,-28.055 v -5.212 c -4.429,0.295 -10.962,0.444 -19.6,0.444 l -4.539,-0.111 c -0.621,-7.171 -0.928,-20.034 -0.928,-38.59 -7.32,0.147 -14.895,0.223 -22.73,0.223 -7.318,0 -15.375,-0.076 -24.17,-0.223" /></g><g
           transform="translate(1369.9209,256.4531)"
           id="g496"><path
             id="path498"
             style="fill:#2b2a29;fill-opacity:1;fill-rule:nonzero;stroke:none"
             d="m 0,0 3.098,53.449 1.77,41.805 0.222,17.964 c 8.134,-0.149 15.306,-0.221 21.518,-0.221 7.024,0 13.865,0.072 20.52,0.221 L 46.358,98.47 c 2.291,2.956 4.232,5.229 5.822,6.82 1.589,1.589 3.53,3.105 5.82,4.546 2.291,1.442 4.657,2.587 7.097,3.438 2.439,0.849 5.174,1.533 8.204,2.051 3.03,0.517 6.21,0.777 9.537,0.777 3.769,0 7.244,-0.316 10.422,-0.943 3.178,-0.629 5.913,-1.424 8.205,-2.384 2.291,-0.962 4.287,-2.07 5.986,-3.327 1.7,-1.258 3.197,-2.68 4.491,-4.269 1.293,-1.591 2.79,-3.9 4.492,-6.93 3.252,4.73 6.689,8.316 10.312,10.756 3.621,2.439 7.743,4.231 12.364,5.378 4.619,1.145 9.37,1.719 14.249,1.719 6.432,0 12.494,-0.926 18.187,-2.772 5.691,-1.85 10.368,-5.046 14.027,-9.593 3.659,-4.546 5.489,-10.442 5.489,-17.686 0,-3.402 -0.245,-8.539 -0.729,-15.414 -0.487,-6.875 -1.161,-18.685 -2.021,-35.429 C 187.453,18.464 186.985,6.727 186.911,0 c -6.796,0.147 -13.368,0.223 -19.716,0.223 -7.756,0 -15.878,-0.076 -24.37,-0.223 0.745,9.388 1.509,21.161 2.292,35.318 0.783,14.157 1.175,23.97 1.175,29.442 0,4.794 -0.556,8.37 -1.668,10.73 -1.112,2.36 -2.539,3.97 -4.28,4.832 -1.741,0.862 -3.649,1.293 -5.723,1.293 -2.223,0 -4.149,-0.411 -5.78,-1.23 -1.778,-0.894 -3.333,-2.274 -4.668,-4.136 -1.779,-2.459 -3.224,-5.552 -4.335,-9.276 -0.891,-2.908 -1.594,-7.342 -2.111,-13.302 -0.519,-6.063 -0.926,-14.047 -1.222,-23.952 L 115.617,0 C 107.713,0.147 100.587,0.223 94.235,0.223 87.734,0.223 80.09,0.147 71.302,0 c 0.674,6.579 1.46,17.632 2.359,33.156 0.898,15.525 1.349,25.91 1.349,31.16 0,4.436 -0.445,7.762 -1.331,9.98 -0.887,2.218 -2.126,3.992 -3.715,5.323 -1.591,1.33 -3.715,1.996 -6.376,1.996 -2.883,0 -5.398,-0.85 -7.54,-2.551 -2.146,-1.701 -3.976,-4.14 -5.489,-7.318 C 49.042,68.566 47.97,64.187 47.343,58.605 46.714,53.022 46.14,44.504 45.622,33.046 45.104,21.586 44.771,10.571 44.624,0 35.67,0.147 28.417,0.223 22.867,0.223 16.724,0.223 9.102,0.147 0,0" /></g><g
           transform="translate(1622.8594,325.7598)"
           id="g500"><path
             id="path502"
             style="fill:#2b2a29;fill-opacity:1;fill-rule:nonzero;stroke:none"
             d="m 0,0 h 36.594 c 0.072,1.256 0.11,2.328 0.11,3.216 0,3.843 -0.684,7.133 -2.052,9.869 -1.368,2.734 -3.326,4.73 -5.877,5.988 -2.549,1.256 -5.416,1.885 -8.593,1.885 -2.218,0 -4.363,-0.352 -6.432,-1.054 C 11.68,19.201 9.813,18.167 8.15,16.799 6.487,15.431 5.101,13.861 3.992,12.087 2.883,10.313 2.068,8.594 1.553,6.931 1.034,5.267 0.517,2.955 0,0 m 68.197,-35.817 c -0.962,-4.436 -2.81,-15.156 -5.545,-32.159 -8.576,-1.699 -15.784,-2.827 -21.623,-3.381 -5.841,-0.555 -11.755,-0.832 -17.742,-0.832 -8.799,0 -16.893,0.61 -24.285,1.828 -7.394,1.217 -13.77,3.379 -19.129,6.48 -5.36,3.101 -9.852,6.961 -13.473,11.577 -3.623,4.616 -6.376,10.1 -8.261,16.451 -1.885,6.353 -2.827,12.888 -2.827,19.611 0,9.453 1.884,18.704 5.655,27.752 3.77,9.048 8.63,16.118 14.582,21.214 5.95,5.096 12.807,8.715 20.57,10.857 7.762,2.142 15.708,3.214 23.841,3.214 8.428,0 16.467,-0.981 24.118,-2.939 7.651,-1.959 14.139,-5.378 19.461,-10.257 5.323,-4.879 9.11,-10.387 11.366,-16.522 2.255,-6.138 3.383,-12.753 3.383,-19.849 0,-4.214 -0.482,-8.91 -1.442,-14.083 l -77.734,-0.112 c -0.074,-1.178 -0.11,-2.245 -0.11,-3.201 0,-7.951 2.845,-13.805 8.538,-17.559 5.692,-3.754 12.642,-5.631 20.848,-5.631 4.879,0 10.44,0.572 16.688,1.718 6.246,1.146 13.953,3.086 23.121,5.823" /></g><g
           transform="translate(466.0503,237.5723)"
           id="g504"><path
             id="path506"
             style="fill:#2b2a29;fill-opacity:1;fill-rule:nonzero;stroke:none"
             d="m 0,0 c -1.286,21.054 -2.769,37.905 -4.448,50.559 11.09,-4.944 20.968,-8.377 29.633,-10.305 8.663,-1.928 16.264,-2.891 22.802,-2.891 8.612,0 15.47,1.26 20.571,3.781 5.099,2.52 7.65,6.25 7.65,11.194 0,1.679 -0.249,3.285 -0.745,4.818 -0.495,1.531 -1.436,3.262 -2.821,5.19 -1.387,1.926 -3.368,4.026 -5.942,6.3 L 38.767,92.962 c -6.538,5.533 -11.092,9.537 -13.668,12.009 -5.25,5.041 -9.336,9.735 -12.258,14.085 -2.923,4.348 -5.052,8.771 -6.388,13.27 -1.338,4.496 -2.005,9.266 -2.005,14.307 0,6.028 1.061,11.935 3.188,17.718 2.123,5.782 5.311,11.194 9.563,16.235 4.249,5.04 9.883,9.388 16.902,13.047 7.016,3.656 14.53,6.153 22.536,7.487 8.006,1.335 16.258,2.002 24.76,2.002 16.703,0 34.89,-1.928 54.561,-5.783 0.297,-6.819 0.641,-13.073 1.038,-18.755 0.394,-5.685 1.335,-15.642 2.817,-29.875 -9.095,3.656 -17.398,6.201 -24.908,7.636 -7.514,1.431 -13.988,2.15 -19.423,2.15 -7.71,0 -14.111,-1.435 -19.2,-4.3 -5.092,-2.868 -7.636,-6.426 -7.636,-10.675 0,-1.978 0.394,-3.906 1.187,-5.783 0.789,-1.879 2.271,-4.077 4.447,-6.597 2.174,-2.521 5.041,-5.29 8.6,-8.303 3.558,-3.016 9.141,-7.487 16.753,-13.418 l 10.676,-8.451 c 3.161,-2.572 6.571,-5.685 10.23,-9.341 3.655,-3.658 6.82,-7.265 9.488,-10.823 2.669,-3.558 4.719,-6.82 6.154,-9.785 1.431,-2.965 2.494,-5.956 3.187,-8.97 0.691,-3.017 1.038,-6.253 1.038,-9.711 0,-8.897 -2.127,-17.373 -6.375,-25.428 C 129.779,18.854 123.75,12.232 115.942,7.043 108.132,1.854 99.56,-1.778 90.219,-3.854 80.878,-5.93 71.019,-6.968 60.64,-6.968 44.627,-6.968 24.413,-4.644 0,0" /></g></g></g></g></svg>